# 3ds Max Wavefront OBJ Exporter v0.99 - (c)2007 guruware
# File Created: 05.10.2025 15:14:46

mtllib frame1.mtl

#
# object Canvas
#

v  0.3116 20.9219 -25.3553
v  0.1617 -20.1392 -25.6892
v  0.5206 -20.6425 24.5105
v  0.6715 20.5116 24.9390
# 4 vertices

vn -1.0000 0.0036 0.0072
# 1 vertex normals

vt 0.0000 1.0000 0.0000
vt 0.0000 0.0000 0.0000
vt 1.0000 0.0000 0.0000
vt 1.0000 1.0000 0.0000
# 4 texture coords

o Canvas
g Canvas
usemtl 03___Default
s 1
f 1/1/1 2/2/1 3/3/1 
f 1/1/1 3/3/1 4/4/1 
# 0 polygons - 2 triangles

#
# object Frame
#

v  -0.4678 27.3070 -22.7053
v  -0.3829 31.7536 -27.1528
v  -1.5946 -31.7161 -27.1996
v  -1.5106 -27.3163 -22.7521
v  -0.4696 27.2134 22.7521
v  -0.3856 31.6132 27.1996
v  -1.5097 -27.2695 22.5649
v  -1.5937 -31.6693 27.0591
v  -0.4848 -25.0883 -20.5518
v  0.4723 25.0415 -20.5518
v  0.4705 24.9479 20.4582
v  -0.4848 -25.0883 20.3646
v  0.4982 -25.1071 -20.5518
v  1.4552 25.0228 -20.5518
v  0.4982 -25.1071 20.3646
v  1.4534 24.9291 20.4582
v  0.3713 -31.7536 -27.1996
v  1.5830 31.7161 -27.1528
v  1.5803 31.5757 27.1996
v  0.3722 -31.7068 27.0591
# 20 vertices

vn -0.9979 -0.0355 0.0538
vn -0.5661 0.5893 -0.5764
vn -0.5882 -0.5663 -0.5773
vn -0.9959 0.0728 0.0535
vn -0.9980 -0.0333 -0.0529
vn -0.5663 0.5869 0.5787
vn -0.9958 0.0734 -0.0543
vn -0.5884 -0.5665 0.5769
vn -0.7576 0.4666 0.4564
vn -0.7735 -0.4370 0.4591
vn -0.7781 -0.4372 -0.4510
vn -0.7557 0.4709 -0.4551
vn 0.9101 0.2842 0.3015
vn 0.8989 -0.3186 0.3008
vn 0.9099 0.2848 -0.3016
vn 0.8986 -0.3182 -0.3022
vn 0.5661 -0.5883 -0.5774
vn 0.5882 0.5673 -0.5764
vn 0.5883 0.5648 0.5787
vn 0.5664 -0.5886 0.5769
# 20 vertex normals

vt 0.9299 0.8577 0.0000
vt 1.0000 0.9277 0.0000
vt 0.0000 0.9285 0.0000
vt 0.0693 0.8584 0.0000
vt 0.9285 0.1416 0.0000
vt 0.9978 0.0715 0.0000
vt 0.0701 0.1445 0.0000
vt 0.0007 0.0737 0.0000
vt 0.1047 0.8237 0.0000
vt 0.8945 0.8237 0.0000
vt 0.8931 0.1777 0.0000
vt 0.1047 0.1792 0.0000
# 12 texture coords

o Frame
g Frame
usemtl 02___Default
s 1
f 5/5/2 6/6/3 7/7/4 
f 7/7/4 8/8/5 5/5/2 
f 5/5/2 9/9/6 10/10/7 
f 10/10/7 6/6/3 5/5/2 
f 9/9/6 11/11/8 12/12/9 
f 12/12/9 10/10/7 9/9/6 
f 12/12/9 11/11/8 8/8/5 
f 8/8/5 7/7/4 12/12/9 
f 5/5/2 8/8/5 13/13/10 
f 13/13/10 14/14/11 5/5/2 
f 5/5/2 14/14/11 15/15/12 
f 15/15/12 9/9/6 5/5/2 
f 15/15/12 16/16/13 11/11/8 
f 11/11/8 9/9/6 15/15/12 
f 11/11/8 16/16/13 13/13/10 
f 13/13/10 8/8/5 11/11/8 
f 13/13/10 17/13/14 18/14/15 
f 18/14/15 14/14/11 13/13/10 
f 17/13/14 13/13/10 16/16/13 
f 16/16/13 19/16/16 17/13/14 
f 14/14/11 18/14/15 20/15/17 
f 20/15/17 15/15/12 14/14/11 
f 15/15/12 20/15/17 19/16/16 
f 19/16/16 16/16/13 15/15/12 
f 21/7/18 22/6/19 18/14/15 
f 18/14/15 17/13/14 21/7/18 
f 23/10/20 20/15/17 18/14/15 
f 18/14/15 22/6/19 23/10/20 
f 24/12/21 19/16/16 20/15/17 
f 20/15/17 23/10/20 24/12/21 
f 17/13/14 19/16/16 24/12/21 
f 24/12/21 21/7/18 17/13/14 
f 6/6/3 22/6/19 21/7/18 
f 21/7/18 7/7/4 6/6/3 
f 7/7/4 21/7/18 24/12/21 
f 24/12/21 12/12/9 7/7/4 
f 12/12/9 24/12/21 23/10/20 
f 23/10/20 10/10/7 12/12/9 
f 10/10/7 23/10/20 22/6/19 
f 22/6/19 6/6/3 10/10/7 
# 0 polygons - 40 triangles

#
# object Back
#

v  0.3539 -30.1771 -25.8382
v  0.3548 -30.1325 25.7136
v  1.5055 30.1413 -25.7936
v  1.5029 30.0077 25.8472
v  1.5946 30.1396 -25.7936
v  1.5920 30.0060 25.8472
v  0.4430 -30.1788 -25.8382
v  0.4439 -30.1342 25.7136
# 8 vertices

vn -0.9998 0.0191 -0.0000
vn 0.0191 0.9998 0.0026
vn 0.9998 -0.0191 -0.0000
vn -0.0191 -0.9998 0.0009
vn 0.0000 0.0007 -1.0000
vn -0.0000 -0.0022 1.0000
# 6 vertex normals

vt 0.2500 0.7500 0.0000
vt 0.2500 0.2500 0.0000
vt 0.7500 0.7500 0.0000
vt 0.7500 0.2500 0.0000
# 4 texture coords

o Back
g Back
usemtl 02___Default
s 1
f 25/17/22 26/18/22 27/19/22 
f 26/18/22 28/20/22 27/19/22 
f 27/17/23 28/18/23 29/19/23 
f 28/18/23 30/20/23 29/19/23 
f 29/17/24 30/18/24 31/19/24 
f 30/18/24 32/20/24 31/19/24 
f 31/17/25 32/18/25 25/19/25 
f 32/18/25 26/20/25 25/19/25 
f 31/17/26 25/18/26 29/19/26 
f 25/18/26 27/20/26 29/19/26 
f 26/17/27 32/18/27 28/19/27 
f 32/18/27 30/20/27 28/19/27 
# 0 polygons - 12 triangles

