# 3ds Max Wavefront OBJ Exporter v0.99 - (c)2007 guruware
# File Created: 13.11.2025 14:02:08

mtllib AlaDer.mtl

#
# object Box037
#

v  27.3374 24.3695 -4.2350
v  27.3374 25.3710 -4.2350
v  28.2416 25.3710 -4.6567
v  28.2416 24.3695 -4.6567
v  33.9928 24.3695 10.0375
v  34.8970 24.3695 9.6159
v  34.8970 25.3710 9.6159
v  33.9928 25.3710 10.0375
# 8 vertices

vn -0.4226 -0.0000 -0.9063
vn 0.4226 0.0000 0.9063
vn 0.0000 -1.0000 0.0000
vn 0.9063 0.0000 -0.4226
vn -0.0000 1.0000 -0.0000
vn -0.9063 0.0000 0.4226
# 6 vertex normals

vt 1.0000 0.0000 0.0000
vt 1.0000 1.0000 0.0000
vt 0.0000 1.0000 0.0000
vt 0.0000 0.0000 0.0000
# 4 texture coords

o Box037
g Box037
usemtl Madera
s 1
f 1/1/1 2/2/1 3/3/1 
f 3/3/1 4/4/1 1/1/1 
f 5/4/2 6/1/2 7/2/2 
f 7/2/2 8/3/2 5/4/2 
s 2
f 1/4/3 4/1/3 6/2/3 
f 6/2/3 5/3/3 1/4/3 
s 4
f 4/4/4 3/1/4 7/2/4 
f 7/2/4 6/3/4 4/4/4 
s 2
f 3/4/5 2/1/5 8/2/5 
f 8/2/5 7/3/5 3/4/5 
s 4
f 2/4/6 1/1/6 5/2/6 
f 5/2/6 8/3/6 2/4/6 
# 12 faces

#
# object Box038
#

v  33.8442 24.3695 9.2945
v  33.8442 25.3710 9.2945
v  34.8268 25.3710 9.4677
v  34.8268 24.3695 9.4677
v  31.1096 24.3695 24.8032
v  32.0921 24.3695 24.9765
v  32.0921 25.3710 24.9765
v  31.1096 25.3710 24.8032
# 8 vertices

vn 0.1736 -0.0000 -0.9848
vn -0.1736 0.0000 0.9848
vn -0.0000 -1.0000 0.0000
vn 0.9848 0.0000 0.1736
vn 0.0000 1.0000 -0.0000
vn -0.9848 0.0000 -0.1736
# 6 vertex normals

vt 1.0000 0.0000 0.0000
vt 1.0000 1.0000 0.0000
vt 0.0000 1.0000 0.0000
vt 0.0000 0.0000 0.0000
# 4 texture coords

o Box038
g Box038
usemtl Madera
s 1
f 9/5/7 10/6/7 11/7/7 
f 11/7/7 12/8/7 9/5/7 
f 13/8/8 14/5/8 15/6/8 
f 15/6/8 16/7/8 13/8/8 
s 2
f 9/8/9 12/5/9 14/6/9 
f 14/6/9 13/7/9 9/8/9 
s 4
f 12/8/10 11/5/10 15/6/10 
f 15/6/10 14/7/10 12/8/10 
s 2
f 11/8/11 10/5/11 16/6/11 
f 16/6/11 15/7/11 11/8/11 
s 4
f 10/8/12 9/5/12 13/6/12 
f 13/6/12 16/7/12 10/8/12 
# 12 faces

#
# object Box039
#

v  31.2845 24.3695 24.1681
v  31.2845 25.3710 24.1681
v  32.0488 25.3710 24.8094
v  32.0488 24.3695 24.8094
v  21.1619 24.3695 36.2318
v  21.9262 24.3695 36.8731
v  21.9262 25.3710 36.8731
v  21.1619 25.3710 36.2318
# 8 vertices

vn 0.6428 -0.0000 -0.7660
vn -0.6428 0.0000 0.7660
vn -0.0000 -1.0000 0.0000
vn 0.7660 0.0000 0.6428
vn 0.0000 1.0000 -0.0000
vn -0.7660 0.0000 -0.6428
# 6 vertex normals

vt 1.0000 0.0000 0.0000
vt 1.0000 1.0000 0.0000
vt 0.0000 1.0000 0.0000
vt 0.0000 0.0000 0.0000
# 4 texture coords

o Box039
g Box039
usemtl Madera
s 1
f 17/9/13 18/10/13 19/11/13 
f 19/11/13 20/12/13 17/9/13 
f 21/12/14 22/9/14 23/10/14 
f 23/10/14 24/11/14 21/12/14 
s 2
f 17/12/15 20/9/15 22/10/15 
f 22/10/15 21/11/15 17/12/15 
s 4
f 20/12/16 19/9/16 23/10/16 
f 23/10/16 22/11/16 20/12/16 
s 2
f 19/12/17 18/9/17 24/10/17 
f 24/10/17 23/11/17 19/12/17 
s 4
f 18/12/18 17/9/18 21/10/18 
f 21/10/18 24/11/18 18/12/18 
# 12 faces

#
# object Box040
#

v  11.6716 24.3695 24.6533
v  11.6716 25.3710 24.6533
v  11.9732 25.3710 24.4002
v  11.9732 24.3695 24.4002
v  21.7942 24.3695 36.7170
v  22.0958 24.3695 36.4639
v  22.0958 25.3710 36.4639
v  21.7942 25.3710 36.7170
# 8 vertices

vn -0.6428 -0.0000 -0.7660
vn 0.6428 0.0000 0.7660
vn 0.0000 -1.0000 0.0000
vn 0.7660 0.0000 -0.6428
vn -0.0000 1.0000 -0.0000
vn -0.7660 0.0000 0.6428
# 6 vertex normals

vt 1.0000 0.0000 0.0000
vt 1.0000 1.0000 0.0000
vt 0.0000 1.0000 0.0000
vt 0.0000 0.0000 0.0000
# 4 texture coords

o Box040
g Box040
usemtl Madera
s 1
f 25/13/19 26/14/19 27/15/19 
f 27/15/19 28/16/19 25/13/19 
f 29/16/20 30/13/20 31/14/20 
f 31/14/20 32/15/20 29/16/20 
s 2
f 25/16/21 28/13/21 30/14/21 
f 30/14/21 29/15/21 25/16/21 
s 4
f 28/16/22 27/13/22 31/14/22 
f 31/14/22 30/15/22 28/16/22 
s 2
f 27/16/23 26/13/23 32/14/23 
f 32/14/23 31/15/23 27/16/23 
s 4
f 26/16/24 25/13/24 29/14/24 
f 29/14/24 32/15/24 26/16/24 
# 12 faces

#
# object Box041
#

v  17.7885 24.3695 17.2819
v  17.7885 25.3710 17.2819
v  17.9854 25.3710 16.9410
v  17.9854 24.3695 16.9410
v  31.4267 24.3695 25.1559
v  31.6236 24.3695 24.8150
v  31.6236 25.3710 24.8150
v  31.4267 25.3710 25.1559
# 8 vertices

vn -0.8660 -0.0000 -0.5000
vn 0.8660 0.0000 0.5000
vn 0.0000 -1.0000 0.0000
vn 0.5000 0.0000 -0.8660
vn -0.0000 1.0000 -0.0000
vn -0.5000 0.0000 0.8660
# 6 vertex normals

vt 1.0000 0.0000 0.0000
vt 1.0000 1.0000 0.0000
vt 0.0000 1.0000 0.0000
vt 0.0000 0.0000 0.0000
# 4 texture coords

o Box041
g Box041
usemtl Madera
s 1
f 33/17/25 34/18/25 35/19/25 
f 35/19/25 36/20/25 33/17/25 
f 37/20/26 38/17/26 39/18/26 
f 39/18/26 40/19/26 37/20/26 
s 2
f 33/20/27 36/17/27 38/18/27 
f 38/18/27 37/19/27 33/20/27 
s 4
f 36/20/28 35/17/28 39/18/28 
f 39/18/28 38/19/28 36/20/28 
s 2
f 35/20/29 34/17/29 40/18/29 
f 40/18/29 39/19/29 35/20/29 
s 4
f 34/20/30 33/17/30 37/18/30 
f 37/18/30 40/19/30 34/20/30 
# 12 faces

#
# object Box042
#

v  18.9026 24.3695 8.5676
v  18.9026 25.3710 8.5676
v  18.9369 25.3710 8.1754
v  18.9369 24.3695 8.1754
v  34.5907 24.3695 9.9401
v  34.6250 24.3695 9.5479
v  34.6250 25.3710 9.5479
v  34.5907 25.3710 9.9401
# 8 vertices

vn -0.9962 -0.0000 -0.0872
vn 0.9962 0.0000 0.0872
vn 0.0000 -1.0000 0.0000
vn 0.0872 -0.0000 -0.9962
vn -0.0000 1.0000 -0.0000
vn -0.0872 0.0000 0.9962
# 6 vertex normals

vt 1.0000 0.0000 0.0000
vt 1.0000 1.0000 0.0000
vt 0.0000 1.0000 0.0000
vt 0.0000 0.0000 0.0000
# 4 texture coords

o Box042
g Box042
usemtl Madera
s 1
f 41/21/31 42/22/31 43/23/31 
f 43/23/31 44/24/31 41/21/31 
f 45/24/32 46/21/32 47/22/32 
f 47/22/32 48/23/32 45/24/32 
s 2
f 41/24/33 44/21/33 46/22/33 
f 46/22/33 45/23/33 41/24/33 
s 4
f 44/24/34 43/21/34 47/22/34 
f 47/22/34 46/23/34 44/24/34 
s 2
f 43/24/35 42/21/35 48/22/35 
f 48/22/35 47/23/35 43/24/35 
s 4
f 42/24/36 41/21/36 45/22/36 
f 45/22/36 48/23/36 42/24/36 
# 12 faces

#
# object Plane003
#

v  26.7330 24.8423 9.0306
v  19.0474 24.8423 8.3871
v  17.1083 24.8423 -4.3314
v  19.5891 24.8423 -4.4088
v  30.5334 24.8423 9.3484
v  23.1165 24.8423 -4.4988
v  34.3356 24.8423 9.7155
v  27.8742 24.8423 -4.3435
v  21.6046 24.8423 15.4138
v  18.1183 24.8423 17.3546
v  19.2762 24.8423 13.4772
v  25.0910 24.8423 15.4138
v  28.5773 24.8423 15.4138
v  32.9259 24.8423 18.2479
v  21.6046 24.8423 20.0080
v  15.2865 24.8423 21.7469
v  25.0910 24.8423 20.0080
v  28.5773 24.8423 20.0080
v  31.3126 24.8423 24.7443
v  15.5959 24.8423 28.8443
v  12.1977 24.8423 24.7774
v  18.4408 24.8423 32.4301
v  20.3753 24.8423 34.7516
v  21.6392 24.8423 36.4962
# 24 vertices

vn 0.0000 -1.0000 0.0000
# 1 vertex normals

vt 0.5000 0.2500 0.0000
vt 0.2500 0.2500 0.0000
vt 0.2500 0.0000 0.0000
vt 0.5000 0.0000 0.0000
vt 0.7500 0.2500 0.0000
vt 0.7500 0.0000 0.0000
vt 1.0000 0.2500 0.0000
vt 1.0000 0.0000 0.0000
vt 0.2500 0.5000 0.0000
vt 0.0000 0.5000 0.0000
vt 0.0000 0.2500 0.0000
vt 0.5000 0.5000 0.0000
vt 0.7500 0.5000 0.0000
vt 1.0000 0.5000 0.0000
vt 0.2500 0.7500 0.0000
vt 0.0000 0.7500 0.0000
vt 0.5000 0.7500 0.0000
vt 0.7500 0.7500 0.0000
vt 1.0000 0.7500 0.0000
vt 0.2500 1.0000 0.0000
vt 0.0000 1.0000 0.0000
vt 0.5000 1.0000 0.0000
vt 0.7500 1.0000 0.0000
vt 1.0000 1.0000 0.0000
# 24 texture coords

o Plane003
g Plane003
usemtl 03___Default
s 1
f 49/25/37 50/26/37 51/27/37 
f 51/27/37 52/28/37 49/25/37 
f 53/29/37 49/25/37 52/28/37 
f 52/28/37 54/30/37 53/29/37 
f 55/31/37 53/29/37 54/30/37 
f 54/30/37 56/32/37 55/31/37 
f 57/33/37 58/34/37 59/35/37 
f 59/35/37 50/26/37 57/33/37 
f 60/36/37 57/33/37 50/26/37 
f 50/26/37 49/25/37 60/36/37 
f 61/37/37 60/36/37 49/25/37 
f 49/25/37 53/29/37 61/37/37 
f 62/38/37 61/37/37 53/29/37 
f 53/29/37 55/31/37 62/38/37 
f 63/39/37 64/40/37 58/34/37 
f 58/34/37 57/33/37 63/39/37 
f 65/41/37 63/39/37 57/33/37 
f 57/33/37 60/36/37 65/41/37 
f 66/42/37 65/41/37 60/36/37 
f 60/36/37 61/37/37 66/42/37 
f 67/43/37 66/42/37 61/37/37 
f 61/37/37 62/38/37 67/43/37 
f 68/44/37 69/45/37 64/40/37 
f 64/40/37 63/39/37 68/44/37 
f 70/46/37 68/44/37 63/39/37 
f 63/39/37 65/41/37 70/46/37 
f 71/47/37 70/46/37 65/41/37 
f 65/41/37 66/42/37 71/47/37 
f 71/47/37 66/42/37 67/43/37 
f 67/43/37 72/48/37 71/47/37 
# 30 faces

